<?xml version="1.0" encoding="utf-8"?>
<!-- Generator: Adobe Illustrator 23.0.5, SVG Export Plug-In . SVG Version: 6.00 Build 0)  -->
<svg version="1.1" id="Слой_1" xmlns="http://www.w3.org/2000/svg" xmlns:xlink="http://www.w3.org/1999/xlink" x="0px" y="0px"
	 viewBox="0 0 500 500" style="enable-background:new 0 0 500 500;" xml:space="preserve">
<style type="text/css">
	.st0{fill:url(#SVGID_1_);}
	.st1{opacity:0.2;fill-rule:evenodd;clip-rule:evenodd;fill:#3B3838;enable-background:new    ;}
	.st2{fill:#FFFFFF;}
</style>
<g>
	
		<linearGradient id="SVGID_1_" gradientUnits="userSpaceOnUse" x1="500" y1="502" x2="-2.426729e-06" y2="2" gradientTransform="matrix(1 0 0 -1 0 502)">
		<stop  offset="0" style="stop-color:#C7C2BC"/>
		<stop  offset="1" style="stop-color:#AF9888"/>
	</linearGradient>
	<circle class="st0" cx="250" cy="250" r="250"/>
</g>
<path class="st1" d="M214.3,497.5C109.8,482.5,26.1,403,5.1,300.5l159.2-159.2v205l14.3,17.9l172.1-3.1L214.3,497.5z"/>
<path class="st2" d="M215.3,130.4v-10.7c-5.9,0-10.7,4.8-10.7,10.7H215.3z M215.3,178.8h-10.7c0,5.9,4.8,10.7,10.7,10.7V178.8z
	 M291.8,178.8v10.7c5.9,0,10.7-4.8,10.7-10.7H291.8z M291.8,130.4h10.7c0-5.9-4.8-10.7-10.7-10.7V130.4z M232.3,130.4v10.7h8.3
	l2.1-8L232.3,130.4z M274.8,130.4l-10.4,2.7l2.1,8h8.3V130.4z M153.6,160.8V350H175V160.8H153.6z M178.6,375h150v-21.4h-150V375z
	 M353.6,350V160.8h-21.4V350H353.6z M204.6,223.2v24.2H226v-24.2H204.6z M204.6,271.5v24.2H226v-24.2H204.6z M249.3,246h55.3v-21.4
	h-55.3V246z M249.3,294.4h55.3v-21.4h-55.3V294.4z M204.6,130.4v48.4H226v-48.4H204.6z M215.3,189.5h76.5v-21.4h-76.5V189.5z
	 M302.6,178.8v-48.4h-21.4v48.4H302.6z M215.3,141.1h17v-21.4h-17V141.1z M232.3,130.4c10.4,2.7,10.4,2.7,10.4,2.7c0,0,0,0,0,0
	c0,0,0,0,0,0c0,0,0,0,0,0c0,0,0,0,0,0c0,0,0,0,0,0c0,0,0-0.1,0-0.1c0.1-0.2,0.2-0.5,0.4-1c0.4-0.9,1-2.1,1.9-3.2
	c1.6-2.1,4.1-4,8.6-4v-21.4c-12.5,0-20.7,6.1-25.4,12.1c-2.3,2.9-3.8,5.8-4.7,7.9c-0.5,1.1-0.8,2-1.1,2.7c-0.1,0.4-0.2,0.6-0.3,0.9
	c0,0.1-0.1,0.2-0.1,0.3c0,0,0,0.1,0,0.1c0,0,0,0,0,0c0,0,0,0,0,0c0,0,0,0,0,0C222,127.7,222,127.7,232.3,130.4z M253.6,125
	c4.5,0,7,1.9,8.6,4c0.9,1.1,1.5,2.3,1.9,3.2c0.2,0.4,0.3,0.8,0.4,1c0,0.1,0,0.1,0,0.1c0,0,0,0,0,0c0,0,0,0,0,0c0,0,0,0,0,0
	c0,0,0,0,0,0c0,0,0,0,0,0c0,0,0,0,10.4-2.7c10.4-2.7,10.4-2.7,10.4-2.7c0,0,0,0,0,0c0,0,0,0,0,0c0,0,0,0,0,0c0,0,0-0.1,0-0.1
	c0-0.1-0.1-0.2-0.1-0.3c-0.1-0.2-0.2-0.5-0.3-0.9c-0.2-0.7-0.6-1.6-1.1-2.7c-0.9-2.1-2.4-5-4.7-7.9c-4.7-6-12.9-12.1-25.4-12.1V125z
	 M274.8,141.1h17v-21.4h-17V141.1z M178.6,157.3h7v-21.4h-7V157.3z M328.6,135.8h-7v21.4h7V135.8z M353.6,160.8
	c0-13.8-11.2-25-25-25v21.4c2,0,3.6,1.6,3.6,3.6H353.6z M328.6,375c13.8,0,25-11.2,25-25h-21.4c0,2-1.6,3.6-3.6,3.6V375z M153.6,350
	c0,13.8,11.2,25,25,25v-21.4c-2,0-3.6-1.6-3.6-3.6H153.6z M175,160.8c0-2,1.6-3.6,3.6-3.6v-21.4c-13.8,0-25,11.2-25,25H175z"/>
</svg>
