<?xml version="1.0" encoding="utf-8"?>
<!-- Generator: Adobe Illustrator 23.0.5, SVG Export Plug-In . SVG Version: 6.00 Build 0)  -->
<svg version="1.1" id="Слой_1" xmlns="http://www.w3.org/2000/svg" xmlns:xlink="http://www.w3.org/1999/xlink" x="0px" y="0px"
	 viewBox="0 0 500 500" style="enable-background:new 0 0 500 500;" xml:space="preserve">
<style type="text/css">
	.st0{fill:url(#SVGID_1_);}
	.st1{opacity:0.2;fill-rule:evenodd;clip-rule:evenodd;fill:url(#SVGID_2_);enable-background:new    ;}
	.st2{fill:url(#SVGID_3_);filter:url(#Adobe_OpacityMaskFilter);}
	.st3{mask:url(#mask0_1_);}
	.st4{fill:#FFFFFF;}
	.st5{fill:url(#SVGID_4_);filter:url(#Adobe_OpacityMaskFilter_1_);}
	.st6{mask:url(#mask0_2_);}
	.st7{fill:url(#SVGID_5_);filter:url(#Adobe_OpacityMaskFilter_2_);}
	.st8{mask:url(#mask0_3_);}
	.st9{fill:url(#SVGID_6_);filter:url(#Adobe_OpacityMaskFilter_3_);}
	.st10{mask:url(#mask0_4_);}
</style>
<g>
	
		<linearGradient id="SVGID_1_" gradientUnits="userSpaceOnUse" x1="500" y1="502" x2="-1.660359e-06" y2="2" gradientTransform="matrix(1 0 0 -1 0 502)">
		<stop  offset="0" style="stop-color:#C7C2BC"/>
		<stop  offset="1" style="stop-color:#AF9888"/>
	</linearGradient>
	<circle class="st0" cx="250" cy="250" r="250"/>
</g>
<linearGradient id="SVGID_2_" gradientUnits="userSpaceOnUse" x1="18.8828" y1="350.819" x2="388.8828" y2="0.8189" gradientTransform="matrix(1 0 0 -1 0 502)">
	<stop  offset="0" style="stop-color:#262626"/>
	<stop  offset="1" style="stop-color:#4E4A4A;stop-opacity:0"/>
</linearGradient>
<path class="st1" d="M200.9,495.2C123.5,479.8,59,428.7,25.3,359.7l205.6-205.6c7.8-7.8,20.5-7.8,28.3,0l127.3,127.3
	c7.8,7.8,7.8,20.5,0,28.3L200.9,495.2z"/>
<defs>
	<filter id="Adobe_OpacityMaskFilter" filterUnits="userSpaceOnUse" x="102.8" y="140" width="294.5" height="360">
		<feColorMatrix  type="matrix" values="1 0 0 0 0  0 1 0 0 0  0 0 1 0 0  0 0 0 1 0"/>
	</filter>
</defs>
<mask maskUnits="userSpaceOnUse" x="102.8" y="140" width="294.5" height="360" id="mask0_1_">
	
		<linearGradient id="SVGID_3_" gradientUnits="userSpaceOnUse" x1="500" y1="502" x2="-1.660359e-06" y2="2" gradientTransform="matrix(1 0 0 -1 0 502)">
		<stop  offset="0" style="stop-color:#C3B5AA"/>
		<stop  offset="0.6979" style="stop-color:#907562"/>
	</linearGradient>
	<circle class="st2" cx="250" cy="250" r="250"/>
</mask>
<g class="st3">
	<g>
		<path class="st4" d="M391.4,301.4c-7.8,7.8-20.5,7.8-28.3,0L270,208.3V500h-40V208.3l-93.1,93.1c-7.8,7.8-20.5,7.8-28.3,0
			c-7.8-7.8-7.8-20.5,0-28.3l127.3-127.2c7.8-7.9,20.4-7.9,28.2,0l127.3,127.2C399.2,280.9,399.2,293.6,391.4,301.4z"/>
	</g>
</g>
<defs>
	<filter id="Adobe_OpacityMaskFilter_1_" filterUnits="userSpaceOnUse" x="102.8" y="140" width="294.5" height="360">
		<feColorMatrix  type="matrix" values="1 0 0 0 0  0 1 0 0 0  0 0 1 0 0  0 0 0 1 0"/>
	</filter>
</defs>
<mask maskUnits="userSpaceOnUse" x="102.8" y="140" width="294.5" height="360" id="mask0_2_">
	
		<linearGradient id="SVGID_4_" gradientUnits="userSpaceOnUse" x1="500" y1="502" x2="-1.660359e-06" y2="2" gradientTransform="matrix(1 0 0 -1 0 502)">
		<stop  offset="0" style="stop-color:#C3B5AA"/>
		<stop  offset="0.6979" style="stop-color:#907562"/>
	</linearGradient>
	<circle class="st5" cx="250" cy="250" r="250"/>
</mask>
<g class="st6">
	<g>
		<path class="st4" d="M391.4,301.4c-7.8,7.8-20.5,7.8-28.3,0L270,208.3V500h-40V208.3l-93.1,93.1c-7.8,7.8-20.5,7.8-28.3,0
			c-7.8-7.8-7.8-20.5,0-28.3l127.3-127.2c7.8-7.9,20.4-7.9,28.2,0l127.3,127.2C399.2,280.9,399.2,293.6,391.4,301.4z"/>
	</g>
</g>
<defs>
	<filter id="Adobe_OpacityMaskFilter_2_" filterUnits="userSpaceOnUse" x="102.8" y="140" width="294.5" height="360">
		<feColorMatrix  type="matrix" values="1 0 0 0 0  0 1 0 0 0  0 0 1 0 0  0 0 0 1 0"/>
	</filter>
</defs>
<mask maskUnits="userSpaceOnUse" x="102.8" y="140" width="294.5" height="360" id="mask0_3_">
	
		<linearGradient id="SVGID_5_" gradientUnits="userSpaceOnUse" x1="500" y1="502" x2="-1.660359e-06" y2="2" gradientTransform="matrix(1 0 0 -1 0 502)">
		<stop  offset="0" style="stop-color:#C3B5AA"/>
		<stop  offset="0.6979" style="stop-color:#907562"/>
	</linearGradient>
	<circle class="st7" cx="250" cy="250" r="250"/>
</mask>
<g class="st8">
	<g>
		<path class="st4" d="M391.4,301.4c-7.8,7.8-20.5,7.8-28.3,0L270,208.3V500h-40V208.3l-93.1,93.1c-7.8,7.8-20.5,7.8-28.3,0
			c-7.8-7.8-7.8-20.5,0-28.3l127.3-127.2c7.8-7.9,20.4-7.9,28.2,0l127.3,127.2C399.2,280.9,399.2,293.6,391.4,301.4z"/>
	</g>
</g>
<defs>
	<filter id="Adobe_OpacityMaskFilter_3_" filterUnits="userSpaceOnUse" x="102.8" y="140" width="294.5" height="360">
		<feColorMatrix  type="matrix" values="1 0 0 0 0  0 1 0 0 0  0 0 1 0 0  0 0 0 1 0"/>
	</filter>
</defs>
<mask maskUnits="userSpaceOnUse" x="102.8" y="140" width="294.5" height="360" id="mask0_4_">
	
		<linearGradient id="SVGID_6_" gradientUnits="userSpaceOnUse" x1="500" y1="502" x2="-1.660359e-06" y2="2" gradientTransform="matrix(1 0 0 -1 0 502)">
		<stop  offset="0" style="stop-color:#C3B5AA"/>
		<stop  offset="0.6979" style="stop-color:#907562"/>
	</linearGradient>
	<circle class="st9" cx="250" cy="250" r="250"/>
</mask>
<g class="st10">
	<g>
		<path class="st4" d="M391.4,301.4c-7.8,7.8-20.5,7.8-28.3,0L270,208.3V500h-40V208.3l-93.1,93.1c-7.8,7.8-20.5,7.8-28.3,0
			c-7.8-7.8-7.8-20.5,0-28.3l127.3-127.2c7.8-7.9,20.4-7.9,28.2,0l127.3,127.2C399.2,280.9,399.2,293.6,391.4,301.4z"/>
	</g>
</g>
</svg>
